<?xml version="1.0" encoding="utf-8"?>
<!-- Generator: Adobe Illustrator 23.0.3, SVG Export Plug-In . SVG Version: 6.00 Build 0)  -->
<svg version="1.1" id="Layer_1" xmlns="http://www.w3.org/2000/svg" xmlns:xlink="http://www.w3.org/1999/xlink" x="0px" y="0px"
	 viewBox="0 0 154.9 76.6" style="enable-background:new 0 0 154.9 76.6;" xml:space="preserve">
<style type="text/css">
	.st0{fill-rule:evenodd;clip-rule:evenodd;}
	.st1{fill-rule:evenodd;clip-rule:evenodd;fill:#F03E3E;}
</style>
<title>Isotype V2</title>
<desc>Created with Sketch.</desc>
<g id="Current">
	<g transform="translate(-194.000000, -467.000000)">
		<g transform="translate(194.000000, 467.000000)">
			<g id="Isotype">
				<path id="Combined-Shape" class="st0" d="M23.7,45.1c-0.9,6.1-1.9,12.2-2.8,18.4c-0.6,3.8-1.2,7.5-2,11.3
					c-0.1,0.6-1,1.4-1.6,1.5c-1.6,0.3-3.3,0.2-4.9,0.3c-1,0.1-1.6-0.4-1.8-1.4c-1-4.5-2-9-3-13.5C5.7,52.6,3.9,43.4,2,34.3
					c-0.7-3.3-1.3-6.6-2-9.9c-0.2-0.9,0.2-1.6,1.1-1.7c2.5-0.1,5.1-0.2,7.6-0.1c1.1,0,1.3,1.2,1.5,2.1c0.8,5.8,1.5,11.6,2.4,17.3
					c0.6,4,1.4,7.9,2.4,11.9c0.4-2.3,0.7-4.7,1.1-7c0.8-5.1,1.6-10.1,2.3-15.2c0.3-2.1,0.3-4.3,0.5-6.5c0.1-1.6,0.6-2.3,2.1-2.4
					c1.8-0.1,3.6-0.1,5.5,0c1.2,0,1.7,1,1.9,2c0.7,4,1.4,8,2,11.9c0.8,5.5,1.5,10.9,2.3,16.4c0,0.3,0.2,0.6,0.4,0.9
					c0.3-1.7,0.8-3.5,1-5.2c0.8-6.3,1.6-12.6,2.4-18.8c0.2-1.6,0.3-3.2,0.6-4.8c0.3-1.8,1.1-2.5,2.9-2.5c1.7,0,3.5,0,5.2,0
					c1.8,0,2.2,0.6,1.9,2.3c-0.6,3.2-1.3,6.3-1.9,9.5c-2,11.1-4.1,22.2-6.1,33.3c-0.4,2.3-0.8,4.6-1.2,6.9c-0.2,1-0.8,1.6-1.8,1.7
					c-1.6,0.1-3.2,0.2-4.8,0.2c-1.8,0-2.4-0.6-2.6-2.4c-0.7-4.6-1.3-9.1-2-13.7c-0.7-4.8-1.4-9.5-2.1-14.3c-0.1-0.3-0.2-0.7-0.2-1
					C23.9,45.1,23.8,45.1,23.7,45.1z M73.4,45.5c-0.6,3.5-1.2,7-1.8,10.5c-0.6,3.5-1.3,7-1.8,10.5c-0.4,2.5-0.8,5.1-1.1,7.6
					c-0.2,1.5-0.8,2.1-2.3,2c-1.6,0-3.2,0-4.8-0.2c-0.6-0.1-1.4-0.6-1.6-1.1c-0.7-2.9-1.2-5.8-1.8-8.6c-0.5-2.6-1.1-5.3-1.6-7.9
					c-1-5-1.9-10.1-2.9-15.1c-0.9-4.2-1.9-8.4-2.8-12.6c-0.4-1.9-0.8-3.8-1.1-5.7c-0.2-1.5,0.2-2.1,1.7-2.1c2.2,0,4.4,0.1,6.5,0.5
					c0.5,0.1,1.2,1.1,1.3,1.7c0.7,3.6,1.2,7.2,1.8,10.8C62,41,63,46.3,64,51.5c0.1,0.5,0.2,1.1,0.5,1.6c0.1-0.4,0.2-0.8,0.2-1.3
					c1.4-9,2.9-17.9,4.3-26.9c0.2-1.3,0.4-2.2,2.1-2c1.6,0.2,3.3,0.1,4.9,0.1c0.8,0,1.1,0.4,1.3,1.2c1.3,8.4,2.6,16.9,4,25.3
					c0.3,1.7,0.9,3.4,1.6,5c0.3-1.4,0.6-2.8,0.8-4.2c1.2-8.6,2.3-17.2,3.4-25.8c0.2-1.8,0.7-2.2,2.5-2.2c1.7,0.1,3.4,0.1,5.1,0.1
					c1.5,0.1,1.9,0.4,1.7,1.9c-0.7,4.7-1.6,9.4-2.3,14.1c-1.2,8.2-2.9,16.2-4.8,24.3c-0.8,3.5-1.1,7.2-1.7,10.8
					c-0.3,2-1,2.5-2.9,2.5c-1.2,0-2.4,0.1-3.6,0.1c-1.7,0.1-2.6-0.6-2.9-2.3c-0.9-6.8-1.9-13.5-2.9-20.3c-0.4-2.8-0.9-5.6-1.4-8.3
					C73.7,45.5,73.6,45.5,73.4,45.5z"/>
				<path id="Fill-35" class="st0" d="M111.1,46.3c1.7,0,3.3,0.2,4.8,0c3-0.5,5.6-1.7,6.2-5c0.2-1.3,0.2-2.6,0.1-3.9
					c-0.3-2.9-2.6-6.4-6.5-6.3c-1,0-2,0.1-3,0.1c-0.8,0-1.1,0.4-1.1,1.2c-0.1,3.1-0.3,6.1-0.4,9.2C111.1,43.1,111.1,44.6,111.1,46.3
					 M111,54c0,4.4,0,8.7,0,12.9c0,2.5,0.2,5.1,0.2,7.6c0,1.4-0.3,1.7-1.8,1.7c-1.7,0-3.4,0.2-5.1,0.2c-2.2,0-2.7-0.6-2.7-2.7
					c0-1.5,0.1-3,0.1-4.5c0-7.3,0.1-14.6,0.1-21.9c0-7.8,0-15.5,0-23.3c0-1,0.5-1.6,1.5-1.5c5,0.1,10-0.1,14.9,0.3
					c8.9,0.8,14.3,8.9,13.4,16.1c-0.7,5-2.5,9.2-6.6,12.4c-0.7,0.6-0.8,1-0.5,1.8c2.5,7.1,4.9,14.1,7.3,21.2
					c0.5,1.4-0.1,2.2-1.6,2.3c-2.1,0.1-4.3,0-6.4,0.1c-1.2,0-1.8-0.6-2.2-1.7c-2.1-6.5-4.3-13-6.4-19.5c-0.4-1.2-1-1.7-2.2-1.5
					C112.5,54,111.9,54,111,54"/>
				<path id="Fill-29" class="st1" d="M140.8,12.8c1-0.4,2-0.8,3.1-0.8c1,0,2,0,3,0.1c0.8,0.1,2.3,0.7,3,1c2.1,1,2.4,1.5,3.1,2.6
					c0.8,1.2,1.3,2.6,1.5,2.8c0.5,1.4,0.5,2.6,0.5,4c0,1.5-0.6,2.9-1.2,4.2c-1,2-2.4,3.6-4.3,4.7c-1.7,0.9-3.5,1.2-5.5,1
					c-2.2-0.2-4.2-1-6-2.2c-0.8-0.6-1.2-1.6-1.8-2.5c-1-1.5-1.5-3-1.7-4.7c-0.1-1.3,0-2.6,0.4-3.9C135.8,16.1,137.9,14.1,140.8,12.8
					z"/>
			</g>
		</g>
	</g>
</g>
<g>
	<path d="M0.1,15.3v-15h5.2c0.7,0,1.3,0.1,1.9,0.3s1.1,0.5,1.6,0.9C9.3,2,9.7,2.5,9.9,3c0.3,0.6,0.4,1.2,0.4,1.8s-0.2,1.3-0.4,1.8
		C9.7,7.3,9.4,7.8,8.9,8.1C8.4,8.5,7.8,8.9,7.3,9C6.7,9.3,6,9.4,5.3,9.4H2.5v5.8H0.1V15.3z M5.4,7.3c0.4,0,0.8-0.1,1-0.2
		C6.8,7,7,6.8,7.2,6.6c0.2-0.2,0.3-0.5,0.5-0.8C7.8,5.6,7.8,5.3,7.8,5c0-0.3-0.1-0.6-0.2-0.8C7.6,3.9,7.4,3.7,7.2,3.4
		C7,3.2,6.7,3,6.4,2.9c-0.3-0.3-0.7-0.3-1-0.3H2.5v4.7H5.4z"/>
	<path d="M12.2,0.3h5.4c0.7,0,1.3,0.1,1.9,0.3s1.1,0.5,1.5,0.9s0.8,0.9,1,1.5s0.3,1.2,0.3,1.8c0,0.5-0.1,1-0.3,1.5
		c-0.2,0.4-0.4,0.8-0.8,1.3C21,8,20.7,8.4,20.2,8.6S19.4,9,18.9,9.2v0.1l4.1,5.9v0.1h-2.8l-3.9-5.9h-1.8v5.9h-2.3V0.3z M17.5,7.3
		c0.3,0,0.7-0.1,1-0.2s0.6-0.3,0.8-0.5s0.4-0.4,0.5-0.8c0.2-0.3,0.2-0.6,0.2-0.9c0-0.3-0.1-0.6-0.2-0.8c-0.1-0.3-0.3-0.5-0.4-0.8
		c-0.2-0.3-0.4-0.4-0.8-0.5c-0.3-0.3-0.6-0.3-1-0.3h-2.9v4.7L17.5,7.3L17.5,7.3z"/>
	<path d="M31.8,15.7c-1.1,0-2.2-0.2-3.1-0.6c-0.9-0.4-1.8-0.9-2.4-1.7c-0.7-0.7-1.3-1.5-1.7-2.5C24.2,10,24,8.9,24,7.8
		s0.2-2.1,0.6-3C25,3.9,25.5,3,26.3,2.3c0.7-0.7,1.5-1.3,2.4-1.7c0.9-0.4,2-0.6,3.1-0.6c1.1,0,2.1,0.2,3.1,0.6
		c0.9,0.4,1.8,1,2.5,1.7C38.1,3,38.7,3.8,39,4.8c0.4,0.9,0.6,2,0.6,3c0,1.1-0.2,2.1-0.6,3.1c-0.4,0.9-0.9,1.8-1.6,2.5
		c-0.7,0.7-1.5,1.3-2.5,1.7C34,15.5,32.9,15.7,31.8,15.7z M31.8,13.4c0.8,0,1.4-0.2,2.1-0.4c0.7-0.3,1.3-0.7,1.7-1.2
		c0.5-0.5,0.8-1.1,1.2-1.8c0.3-0.7,0.4-1.4,0.4-2.3S37,6.2,36.7,5.5s-0.7-1.3-1.2-1.8s-1.1-0.8-1.7-1.2c-0.7-0.3-1.3-0.4-2.1-0.4
		c-0.8,0-1.4,0.2-2.1,0.4S28.5,3.3,28,3.8c-0.5,0.5-0.8,1.1-1.2,1.8c-0.3,0.7-0.4,1.4-0.4,2.3s0.2,1.6,0.4,2.3s0.7,1.3,1.2,1.8
		c0.5,0.5,1.1,0.8,1.7,1.2C30.4,13.2,31.1,13.4,31.8,13.4z"/>
	<path d="M40,0.3h2.6l3.4,9.9l0.5,1.7h0.1l0.6-1.7l3.5-9.9h2.6l-5.5,15h-2.5L40,0.3z"/>
	<path d="M55,0.3h2.3v15H55V0.3z"/>
	<path d="M60.4,0.3h4.9c1.2,0,2.3,0.2,3.2,0.6c0.9,0.4,1.8,0.9,2.4,1.5c0.7,0.7,1.2,1.4,1.5,2.3c0.3,0.9,0.5,1.9,0.5,3
		s-0.2,2.1-0.5,3c-0.3,0.9-0.8,1.7-1.5,2.3c-0.7,0.7-1.5,1.2-2.4,1.5s-2,0.6-3.2,0.6h-4.9C60.4,15.2,60.4,0.3,60.4,0.3z M65.1,13.1
		c1.7,0,3-0.4,3.9-1.3c0.9-0.9,1.4-2.2,1.4-3.9c0-1.6-0.5-2.9-1.4-3.9c-0.9-0.9-2.3-1.4-3.9-1.4h-2.4v10.5
		C62.7,13.1,65.1,13.1,65.1,13.1z"/>
	<path d="M77.5,2.6v4.1h6.1v2.2h-6.1V13h6.8v2.3h-9.1V0.3h9.1v2.3C84.2,2.6,77.5,2.6,77.5,2.6z"/>
	<path d="M86.8,0.3h4.9c1.2,0,2.3,0.2,3.2,0.6c0.9,0.4,1.8,0.9,2.4,1.5c0.7,0.7,1.2,1.4,1.5,2.3c0.3,0.9,0.5,1.9,0.5,3
		s-0.2,2.1-0.5,3s-0.8,1.7-1.5,2.3c-0.7,0.7-1.5,1.2-2.4,1.5c-0.9,0.3-2,0.6-3.2,0.6h-4.9V0.3z M91.6,13.1c1.7,0,3-0.4,3.9-1.3
		c0.9-0.9,1.4-2.2,1.4-3.9c0-1.6-0.5-2.9-1.4-3.9s-2.3-1.4-3.9-1.4h-2.4v10.5C89.2,13.1,91.6,13.1,91.6,13.1z"/>
	<path d="M106.2,0.3h5.7c0.6,0,1.2,0.1,1.7,0.3c0.5,0.2,1,0.5,1.4,0.8s0.8,0.8,1,1.3s0.3,1,0.3,1.6c0,0.8-0.2,1.4-0.6,1.9
		s-0.8,0.9-1.4,1.2v0.1c0.8,0.3,1.3,0.7,1.8,1.3c0.5,0.6,0.7,1.3,0.7,2.2c0,0.7-0.1,1.3-0.4,1.8c-0.3,0.5-0.6,0.9-1,1.3
		c-0.4,0.3-0.9,0.7-1.5,0.8c-0.6,0.2-1.2,0.3-1.8,0.3h-5.9L106.2,0.3L106.2,0.3z M111.8,6.6c0.3,0,0.7-0.1,0.9-0.2
		c0.3-0.1,0.5-0.3,0.7-0.4s0.3-0.4,0.4-0.7c0.1-0.3,0.2-0.5,0.2-0.8c0-0.3-0.1-0.5-0.2-0.8s-0.3-0.5-0.4-0.7
		c-0.2-0.2-0.4-0.3-0.7-0.4c-0.3-0.2-0.5-0.3-0.8-0.3h-3.3v4.1H111.8z M112.1,13.2c0.3,0,0.8-0.1,1-0.2c0.3-0.1,0.5-0.3,0.8-0.5
		s0.3-0.4,0.4-0.7c0.1-0.3,0.2-0.5,0.2-0.8s-0.1-0.6-0.2-0.8s-0.3-0.5-0.5-0.7c-0.2-0.2-0.5-0.3-0.8-0.5s-0.7-0.2-1-0.2h-3.4v4.4
		C108.6,13.2,112.1,13.2,112.1,13.2z"/>
	<path d="M122.2,8.4l-5-8h2.8l3.4,5.5h0.2l3.3-5.5h2.8l-4.9,8v7h-2.3v-7H122.2z"/>
</g>
</svg>
